<?xml version="1.0" encoding="UTF-8"?>
<svg
   xmlns:dc="http://purl.org/dc/elements/1.1/"
   xmlns:cc="http://creativecommons.org/ns#"
   xmlns:rdf="http://www.w3.org/1999/02/22-rdf-syntax-ns#"
   xmlns:svg="http://www.w3.org/2000/svg"
   xmlns="http://www.w3.org/2000/svg"
   viewBox="0 0 311.00001 306"
   height="306"
   width="311"
   xml:space="preserve"
   >
   <defs
     id="defs6" /><g
     id="layer2"
     transform="translate(-1.8272123,-1.6943403)"><g
       transform="matrix(0.38746412,0,0,-0.38746412,4.4110992,305.58106)"
       id="g10"><g
         id="g1156"><path
           id="path70"
           style="fill:#ffffff;stroke:#0066ad;stroke-width:8.76234;stroke-linecap:butt;stroke-linejoin:miter;stroke-miterlimit:3.86369;stroke-dasharray:none;stroke-opacity:1"
           d="m 5.4927154,388.248 c 0,212.018 174.6027546,383.887 390.0107546,383.887 215.383,0 389.989,-171.869 389.989,-383.887 0,-212.033 -174.606,-383.86714 -389.989,-383.86714 C 180.09547,4.38086 5.4927154,176.215 5.4927154,388.248 Z m 98.1157546,0 c 0,158.698 130.656,287.352 291.895,287.352 161.233,0 291.965,-128.654 291.965,-287.352 0,-158.724 -130.732,-287.364 -291.965,-287.364 -161.239,0 -291.895,128.64 -291.895,287.364 z" /><g
           id="g1100"
           style="fill:#0066ad;fill-opacity:1"><g
             id="g1059"
             style="fill:#0066ad;fill-opacity:1"><path
               id="path14"
               style="fill:#0066ad;fill-opacity:1;fill-rule:nonzero;stroke:none;stroke-width:0.1"
               d="m 56.517365,538.127 19.4531,36.11 10.3387,-5.403 -11.5539,-21.419 8.348,-4.392 9.9051,18.295 9.699105,-5.074 -9.865105,-18.305 19.623105,-10.268 -7.958,-14.661 -47.990105,25.117 v 0" /><path
               id="path16"
               style="fill:#0066ad;fill-opacity:1;fill-rule:nonzero;stroke:none;stroke-width:0.1"
               d="m 111.30347,556.486 8.804,13.294 12.655,-8.108 -8.742,-13.331 -12.717,8.145 v 0" /><path
               id="path18"
               style="fill:#0066ad;fill-opacity:1;fill-rule:nonzero;stroke:none;stroke-width:0.1"
               d="m 169.01247,634.893 13.687,6.92 c 2.154,-3.594 3.429,-7.114 3.804,-10.534 0.409,-3.416 -0.057,-6.711 -1.351,-9.876 -1.29,-3.127 -3.65,-6.365 -7.19,-9.698 -4.268,-4.045 -8.293,-6.723 -12.171,-8.129 -3.874,-1.3 -8.292,-1.354 -13.273,-0.147 -5.002,1.179 -9.83,4.165 -14.498,8.968 -6.249,6.356 -9.338,12.865 -9.268,19.548 0.132,6.723 3.297,13.07 9.571,19.043 4.962,4.68 9.754,7.36 14.493,8.098 4.793,0.721 9.808,-0.29 15.204,-3.033 l -8.429,-12.498 c -1.517,0.804 -2.73,1.31 -3.684,1.479 -1.554,0.232 -3.091,0.139 -4.496,-0.263 -1.478,-0.449 -2.827,-1.236 -4.062,-2.376 -2.659,-2.631 -3.71,-5.693 -3.088,-9.289 0.484,-2.603 2.431,-5.683 5.784,-9.127 4.191,-4.269 7.751,-6.6 10.618,-6.91 2.843,-0.345 5.487,0.627 7.884,2.883 2.3,2.198 3.402,4.495 3.332,6.92 -0.077,2.396 -1.032,5.053 -2.867,8.021 v 0" /><path
               id="path20"
               style="fill:#0066ad;fill-opacity:1;fill-rule:nonzero;stroke:none;stroke-width:0.1"
               d="m 196.79747,648.234 13.201,9.092 8.652,-12.181 -13.217,-9.109 -8.636,12.198 v 0" /><path
               id="path22"
               style="fill:#0066ad;fill-opacity:1;fill-rule:nonzero;stroke:none;stroke-width:0.1"
               d="m 235.33147,716.964 15.655,5.927 6.858,-17.492 17.109,6.481 -6.796,17.515 15.731,5.909 19.472,-49.938 -15.73,-5.973 -7.828,20.212 -17.187,-6.441 7.882,-20.214 -15.673,-5.934 -19.493,49.948 v 0" /><path
               id="path24"
               style="fill:#0066ad;fill-opacity:1;fill-rule:nonzero;stroke:none;stroke-width:0.1"
               d="m 520.37747,730.66 15.335,-6.731 -7.718,-17.106 16.759,-7.376 7.73,17.112 15.453,-6.718 -22.171,-48.902 -15.393,6.75 8.914,19.774 -16.741,7.377 -8.949,-19.791 -15.317,6.722 22.098,48.889 v 0" /><path
               id="path76"
               style="fill:#0066ad;fill-opacity:1;fill-rule:nonzero;stroke:none;stroke-width:0.1"
               d="m 310.34347,742.231 44.471,6.957 1.795,-11.291 -27.861,-4.345 1.35,-8.406 25.839,4.034 1.704,-10.785 -25.803,-4.025 1.683,-10.412 28.635,4.448 1.927,-11.956 -45.296,-7.041 -8.444,52.822 v 0" /><path
               id="path78"
               style="fill:#0066ad;fill-opacity:1;fill-rule:evenodd;stroke:none;stroke-width:0.1"
               d="m 394.97647,729.311 7.059,-0.122 c 0.769,-0.009 2.247,0.206 4.456,0.638 1.143,0.205 2.008,0.738 2.737,1.646 0.731,0.862 1.104,1.922 1.14,3.09 0.035,1.705 -0.525,3.043 -1.629,3.99 -1.105,0.927 -3.184,1.44 -6.218,1.506 l -7.337,0.132 z m -17.434,-31.54 0.941,53.495 27.971,-0.477 c 5.224,-0.113 9.157,-0.617 11.909,-1.545 2.735,-0.9 4.869,-2.566 6.538,-4.973 1.608,-2.404 2.414,-5.317 2.355,-8.677 -0.055,-2.978 -0.747,-5.551 -2.058,-7.686 -1.328,-2.137 -3.108,-3.84 -5.375,-5.15 -1.46,-0.797 -3.483,-1.468 -5.955,-2.012 2.008,-0.665 3.449,-1.357 4.383,-2.016 0.54,-0.447 1.405,-1.413 2.566,-2.872 1.143,-1.461 1.929,-2.565 2.325,-3.361 l 7.841,-15.645 -18.986,0.311 -8.652,16.523 c -1.121,2.143 -2.114,3.52 -2.974,4.158 -1.183,0.852 -2.584,1.301 -4.12,1.318 l -1.497,0.057 -0.359,-21.757 -16.853,0.309 v 0" /><path
               id="path80"
               style="fill:#0066ad;fill-opacity:1;fill-rule:nonzero;stroke:none;stroke-width:0.1"
               d="m 447.70647,748.421 49.957,-10.441 -2.812,-12.946 -16.716,3.536 -8.542,-39.404 -16.439,3.419 8.518,39.403 -16.779,3.521 2.813,12.912 v 0" /><path
               id="path82"
               style="fill:#0066ad;fill-opacity:1;fill-rule:evenodd;stroke:none;stroke-width:0.1"
               d="m 596.33747,652.765 6.629,19.017 -16.324,-12.115 z m -4.044,-11.402 -15.503,11.058 -7.434,-5.617 -13.839,9.951 48.442,31.439 14.851,-10.581 -15.449,-55.123 -14.212,10.156 3.144,8.717 v 0" /></g><g
             id="g1047"
             style="fill:#0066ad;fill-opacity:1"><g
               id="g1011"
               style="fill:#0066ad;fill-opacity:1"><g
                 id="g989"
                 style="fill:#0066ad;fill-opacity:1"><g
                   id="g969"
                   style="fill:#0066ad;fill-opacity:1"><path
                     id="path38"
                     style="fill:#0066ad;fill-opacity:1;fill-rule:nonzero;stroke:none;stroke-width:0.1"
                     d="m 203.98647,144.682 13.127,-8.408 0.824,-35.799 16.368,24.811 13.272,-8.466 -29.62,-44.9001 -13.238,8.5192 -0.824,35.5579 -16.291,-24.6779 -13.197,8.4641 29.579,44.8988 v 0" /><path
                     id="path40"
                     style="fill:#0066ad;fill-opacity:1;fill-rule:nonzero;stroke:none;stroke-width:0.1"
                     d="m 244.35747,87.3109 19.942,-9.1168 -4.96,-10.43 -19.907,9.1359 4.925,10.4109 v 0" /><path
                     id="path42"
                     style="fill:#0066ad;fill-opacity:1;fill-rule:nonzero;stroke:none;stroke-width:0.1"
                     d="m 283.88847,100.099 45.422,-13.649 -3.146,-10.2418 -38.479,-21.1781 30.242,-9.0801 -3.408,-11.0078 -49.264,14.8469 3.221,10.614 38.049,20.9539 -26.03,7.8262 3.393,10.9158 v 0" /><path
                     id="path44"
                     style="fill:#0066ad;fill-opacity:1;fill-rule:nonzero;stroke:none;stroke-width:0.1"
                     d="m 340.67647,84.9148 44.659,-5.3957 -1.422,-11.3441 -27.942,3.3699 -1.026,-8.4629 25.894,-3.1281 -1.31,-10.8047 -25.955,3.1129 -1.324,-10.4512 28.797,-3.482 -1.497,-12.0187 -45.483,5.5019 6.609,53.1027 v 0" /><path
                     id="path46"
                     style="fill:#0066ad;fill-opacity:1;fill-rule:nonzero;stroke:none;stroke-width:0.1"
                     d="m 398.36547,79.8949 16.721,1.4621 1.649,-18.6511 18.274,1.573 -1.664,18.6141 16.833,1.4582 4.718,-53.3082 -16.798,-1.4028 -1.891,21.534 -18.273,-1.5531 1.889,-21.5922 -16.737,-1.4617 -4.721,53.3277 v 0" /><path
                     id="path48"
                     style="fill:#0066ad;fill-opacity:1;fill-rule:nonzero;stroke:none;stroke-width:0.1"
                     d="m 463.97847,87.8 16.007,4.827 12.002,-38.5508 25.07,7.509 3.88,-12.5832 -41.141,-12.3801 -15.818,51.1781 v 0" /><path
                     id="path50"
                     style="fill:#0066ad;fill-opacity:1;fill-rule:nonzero;stroke:none;stroke-width:0.1"
                     d="m 514.60747,103.693 40.404,19.437 5.135,-10.261 -25.319,-12.132 3.746,-7.6589 23.497,11.2539 4.924,-9.7898 -23.515,-11.2934 4.68,-9.4566 26.047,12.5078 5.431,-10.9148 -41.23,-19.7762 -23.8,48.084 v 0" /><path
                     id="path52"
                     style="fill:#0066ad;fill-opacity:1;fill-rule:nonzero;stroke:none;stroke-width:0.1"
                     d="m 566.15647,130.117 12.226,9.717 34.808,-10.3 -18.952,23.014 12.288,9.773 34.227,-41.569 -12.323,-9.81 -34.634,10.223 18.833,-22.8439 -12.266,-9.7941 -34.207,41.59 v 0" /></g><path
                   id="path54"
                   style="fill:#0066ad;fill-opacity:1;fill-rule:evenodd;stroke:none;stroke-width:0.1"
                   d="m 636.99147,176.964 22.729,-18.801 2.679,3.109 c 2.246,2.66 3.553,4.757 3.914,6.368 0.352,1.608 0.013,3.334 -0.865,5.203 -1.01,1.909 -3.144,4.196 -6.457,6.968 -4.403,3.611 -8.055,5.39 -10.881,5.317 -2.827,-0.077 -5.631,-1.722 -8.445,-5 z m -20.241,-4.906 16.045,18.836 c 3.185,3.728 6.254,6.29 9.211,7.713 2.939,1.462 6.014,2.137 9.234,2.045 3.145,-0.096 6.31,-0.844 9.4,-2.27 3.126,-1.421 6.083,-3.33 8.95,-5.654 4.434,-3.685 7.468,-7.039 9.042,-10.074 1.646,-2.995 2.508,-6.103 2.658,-9.212 0.167,-3.145 -0.393,-5.955 -1.57,-8.424 -1.575,-3.428 -3.376,-6.272 -5.266,-8.502 l -16.099,-18.819 -41.605,34.361 v 0" /><path
                   id="path56"
                   style="fill:#0066ad;fill-opacity:1;fill-rule:evenodd;stroke:none;stroke-width:0.1"
                   d="m 686.66547,219.508 c 4.85,-2.511 8.784,-3.447 11.871,-2.81 3.106,0.669 5.447,2.543 7.137,5.579 1.628,3.16 1.926,6.102 0.782,8.911 -1.161,2.826 -4.418,5.618 -9.738,8.427 -4.545,2.359 -8.347,3.182 -11.383,2.469 -3.106,-0.672 -5.394,-2.583 -7.133,-5.633 -1.537,-2.943 -1.723,-5.86 -0.614,-8.725 1.195,-2.904 4.189,-5.636 9.078,-8.218 z m -7.96,-14.534 c -7.846,4.123 -12.753,9.419 -14.829,16.011 -2.039,6.589 -0.97,13.705 3.185,21.386 4.233,7.86 9.678,12.783 16.271,14.787 6.591,2.025 13.705,0.995 21.457,-3.053 5.559,-2.918 9.716,-6.271 12.285,-10.016 2.583,-3.726 3.929,-7.864 4.006,-12.449 0.075,-4.553 -1.253,-9.442 -4.103,-14.682 -2.846,-5.318 -6.081,-9.285 -9.732,-11.89 -3.635,-2.565 -7.827,-3.95 -12.753,-4.176 -4.89,-0.24 -10.169,1.124 -15.787,4.082 v 0" /></g><g
                 id="g959"
                 style="fill:#0066ad;fill-opacity:1"><g
                   id="g976"
                   style="fill:#0066ad;fill-opacity:1"><path
                     id="path28"
                     style="fill:#0066ad;fill-opacity:1;fill-rule:evenodd;stroke:none;stroke-width:0.1"
                     d="m 45.449365,349.789 1.0309,-8.387 c 0.3949,-2.811 1.1078,-4.758 2.2457,-5.789 1.1625,-1.028 2.6589,-1.442 4.3625,-1.254 1.5726,0.226 2.8117,0.94 3.5957,2.23 0.8234,1.253 1.0867,3.312 0.7125,6.198 l -1.0114,8.332 z m 21.1957,2.566 0.8797,-7.173 c 0.318,-2.544 0.9758,-4.27 1.9883,-5.13 1.0304,-0.937 2.3757,-1.275 4.0996,-1.049 1.5535,0.189 2.6746,0.862 3.4847,1.948 0.8039,1.105 0.9903,2.885 0.6707,5.392 l -0.8984,7.265 z m 19.0973,19.078 3.8589,-30.708 c 0.6372,-5.112 -0.2015,-9.191 -2.4523,-12.244 -2.2289,-3.05 -5.2238,-4.792 -9.0059,-5.262 -3.2,-0.395 -6.0671,0.245 -8.63,1.926 -1.6703,1.144 -3.1094,2.903 -4.27,5.302 -0.4886,-3.913 -1.7632,-6.912 -3.8211,-8.968 -2.0023,-2.097 -4.7378,-3.37 -8.1812,-3.783 -2.7555,-0.34 -5.3742,0 -7.7914,1.009 -2.3777,1.051 -4.3594,2.566 -5.9356,4.644 -0.9921,1.238 -1.8168,3.26 -2.5445,5.993 -0.9355,3.632 -1.4965,6.064 -1.6277,7.264 l -3.5606,28.35 53.9614,6.477 v 0" /><path
                     id="path30"
                     style="fill:#0066ad;fill-opacity:1;fill-rule:nonzero;stroke:none;stroke-width:0.1"
                     d="m 94.506765,311.254 13.873705,-42.13 -11.042805,-3.539 -8.6918,26.365 -8.2164,-2.64 8.0707,-24.435 -10.5235,-3.354 -8.0703,24.456 -10.2234,-3.296 8.9496,-27.114 -11.7063,-3.762 -14.1718,42.915 51.7523,16.534 v 0" /><path
                     id="path32"
                     style="fill:#0066ad;fill-opacity:1;fill-rule:evenodd;stroke:none;stroke-width:0.1"
                     d="m 102.40847,232.349 3.45,-6.103 c 0.354,-0.637 1.288,-1.796 2.805,-3.464 0.713,-0.879 1.669,-1.331 2.771,-1.516 1.178,-0.208 2.306,0.018 3.332,0.562 1.497,0.823 2.396,1.981 2.695,3.368 0.304,1.426 -0.332,3.429 -1.794,6.07 l -3.596,6.343 z m -36.470805,-0.897 47.540805,25.914 13.591,-24.078 c 2.472,-4.476 4.044,-8.108 4.626,-10.88 0.541,-2.79 0.146,-5.484 -1.142,-8.07 -1.33,-2.621 -3.465,-4.758 -6.442,-6.387 -2.64,-1.462 -5.263,-2.116 -7.787,-2.058 -2.584,0.056 -4.925,0.729 -7.23,2.001 -1.477,0.827 -3.049,2.192 -4.699,4.046 0.396,-2.02 0.466,-3.593 0.32,-4.72 -0.077,-0.731 -0.471,-1.946 -1.199,-3.631 -0.692,-1.741 -1.255,-2.937 -1.821,-3.668 l -9.865205,-14.53 -9.1563,16.366 10.1684,15.61 c 1.3504,2.064 2.0425,3.564 2.2089,4.649 0.1114,1.437 -0.1664,2.806 -0.9003,4.153 l -0.7125,1.274 -19.3207,-10.519 -8.1801,14.528 v 0" /><path
                     id="path34"
                     style="fill:#0066ad;fill-opacity:1;fill-rule:nonzero;stroke:none;stroke-width:0.1"
                     d="m 144.89747,205.164 10.78,-12.696 -31.339,-25.899 16.847,-19.771 -10.279,-8.444 -27.672,32.394 41.663,34.416 v 0" /><path
                     id="path36"
                     style="fill:#0066ad;fill-opacity:1;fill-rule:nonzero;stroke:none;stroke-width:0.1"
                     d="m 180.65747,165.898 12.343,-11.291 -37.075,-39.133 -12.286,11.27 37.018,39.154 v 0" /></g><path
                   id="path72"
                   style="fill:#0066ad;fill-opacity:1;fill-rule:nonzero;stroke:none;stroke-width:0.1"
                   d="m 66.271265,473.987 h -10.4465 l 0.4094,-14.876 -12.7118,8.031 -5.264,-8.678 13.2226,-7.451 -13.2226,-7.432 5.264,-8.71 12.7118,7.704 -0.4094,-14.545 h 10.4465 l -0.3953,14.545 12.5867,-7.704 5.3539,8.71 -13.3336,7.432 13.3336,7.451 -5.3539,8.678 -12.5867,-8.031 0.3953,14.876 v 0" /></g></g><g
               id="g1018"
               style="fill:#0066ad;fill-opacity:1"><path
                 id="path26"
                 style="fill:#0066ad;fill-opacity:1;fill-rule:evenodd;stroke:none;stroke-width:0.1"
                 d="m 659.31147,603.455 c -5.396,-4.296 -8.673,-7.665 -9.907,-10.193 -1.165,-2.473 -1.03,-4.655 0.432,-6.414 0.934,-1.17 2.207,-1.863 3.746,-2.033 1.511,-0.205 3.387,0.225 5.522,1.257 2.168,1.038 5.145,3.05 8.986,6.102 5.578,4.459 8.934,7.948 10.111,10.44 1.163,2.451 0.977,4.654 -0.541,6.507 -1.572,1.882 -3.726,2.49 -6.366,1.76 -2.7,-0.713 -6.649,-3.194 -11.983,-7.426 z m -9.422,11.488 c 8.07,6.404 14.792,9.477 20.373,9.175 5.541,-0.29 10.728,-3.352 15.545,-9.175 2.243,-2.809 3.795,-5.375 4.586,-7.75 0.784,-2.342 1.066,-4.532 0.878,-6.575 -0.17,-1.992 -0.635,-3.855 -1.348,-5.485 -0.694,-1.649 -1.705,-3.316 -3.017,-5.036 -2.525,-3.298 -5.503,-6.289 -8.929,-9.027 -7.68,-6.086 -14.345,-9.296 -19.941,-9.588 -5.658,-0.278 -11.066,2.738 -16.217,8.961 -2.868,3.512 -4.605,6.789 -5.224,9.851 -0.692,3.024 -0.469,6.102 0.541,9.248 0.807,2.258 2.232,4.737 4.497,7.442 2.246,2.706 5.016,5.365 8.256,7.959 v 0" /><path
                 id="path58"
                 style="fill:#0066ad;fill-opacity:1;fill-rule:evenodd;stroke:none;stroke-width:0.1"
                 d="m 711.11847,287.38 2.079,6.666 c 0.226,0.731 0.359,2.152 0.546,4.401 0.146,1.124 -0.187,2.098 -0.826,3.049 -0.635,0.938 -1.556,1.558 -2.7,1.913 -1.664,0.507 -3.123,0.376 -4.356,-0.411 -1.242,-0.77 -2.308,-2.604 -3.189,-5.525 l -2.153,-6.927 z m 25.953,-25.183 -51.999,15.635 8.204,26.361 c 1.57,4.889 3.142,8.464 4.754,10.826 1.664,2.303 3.915,3.931 6.702,4.812 2.791,0.877 5.844,0.823 9.157,-0.19 2.9,-0.861 5.153,-2.209 6.87,-4.042 1.746,-1.836 2.904,-4.008 3.58,-6.498 0.334,-1.59 0.467,-3.654 0.28,-6.178 1.275,1.685 2.341,2.865 3.256,3.538 0.581,0.45 1.76,1.05 3.525,1.685 1.718,0.71 2.992,1.123 3.852,1.254 l 17.49,3.128 -5.54,-17.863 -18.503,-3.691 c -2.397,-0.464 -4.08,-0.989 -4.926,-1.664 -1.177,-0.881 -1.96,-2.041 -2.432,-3.485 l -0.408,-1.384 21.099,-6.368 -4.961,-15.876 v 0" /><path
                 id="path60"
                 style="fill:#0066ad;fill-opacity:1;fill-rule:nonzero;stroke:none;stroke-width:0.1"
                 d="m 700.80347,336.683 3.65,40.722 11.612,-0.993 -2.176,-24.188 9.497,-0.825 1.815,20.67 10.917,-0.952 -1.8,-20.651 22.152,-1.911 -1.52,-16.537 -54.147,4.665 v 0" /><path
                 id="path74"
                 style="fill:#0066ad;fill-opacity:1;fill-rule:nonzero;stroke:none;stroke-width:0.1"
                 d="m 734.05447,474.96 h -10.427 l 0.395,-14.893 -12.661,8.032 -5.3,-8.681 13.223,-7.442 -13.223,-7.46 5.3,-8.718 12.661,7.733 -0.395,-14.529 h 10.427 l -0.374,14.529 12.621,-7.733 5.319,8.718 -13.294,7.46 13.294,7.442 -5.319,8.681 -12.621,-8.032 0.374,14.893 v 0" /><path
                 id="path84"
                 style="fill:#0066ad;fill-opacity:1;fill-rule:nonzero;stroke:none;stroke-width:0.1"
                 d="m 703.15947,561.12 -4.675,13.528 c 4.544,1.152 8.685,0.854 12.412,-0.869 3.782,-1.768 7.15,-5.33 10.184,-10.646 3.408,-6.075 4.758,-11.159 3.948,-15.128 -0.762,-3.997 -2.917,-6.948 -6.381,-8.857 -2.061,-1.115 -4.288,-1.554 -6.537,-1.385 -2.299,0.223 -4.697,1.084 -7.247,2.649 0.618,-2.05 0.864,-3.753 0.81,-5.046 -0.097,-2.079 -0.712,-3.962 -1.837,-5.674 -1.087,-1.769 -2.713,-3.23 -4.946,-4.408 -2.748,-1.527 -5.803,-2.258 -9.191,-2.22 -3.333,0.017 -6.42,1 -9.344,2.949 -2.869,1.937 -5.543,5.065 -7.994,9.409 -2.361,4.297 -3.767,7.911 -4.177,10.944 -0.338,3.006 -0.02,5.822 1.047,8.51 1.066,2.649 2.886,5.196 5.376,7.657 l 9.061,-12.02 c -2.378,-1.956 -3.783,-3.773 -4.249,-5.401 -0.359,-1.641 -0.11,-3.286 0.804,-4.953 0.99,-1.724 2.474,-2.837 4.383,-3.268 2.005,-0.497 4.063,-0.122 6.196,1.059 2.193,1.216 3.635,2.715 4.175,4.493 0.582,1.787 0.338,3.621 -0.693,5.524 -0.656,1.021 -1.667,2.293 -3.183,3.802 l 9.834,4.475 c 0.279,-0.797 0.541,-1.368 0.764,-1.79 0.973,-1.693 2.284,-2.838 4.028,-3.36 1.759,-0.516 3.367,-0.375 4.907,0.45 1.461,0.765 2.395,1.844 2.789,3.145 0.32,1.32 0.133,2.744 -0.714,4.212 -0.88,1.555 -2.075,2.539 -3.574,2.986 -1.405,0.432 -3.408,0.179 -5.976,-0.767 v 0" /></g></g></g><g
           id="g1107"><path
             id="path62"
             style="fill:none;stroke:#0066ad;stroke-width:1.49589;stroke-linecap:butt;stroke-linejoin:miter;stroke-miterlimit:3.86371;stroke-dasharray:none;stroke-opacity:1"
             d="m 262.56047,227.331 c -3.878,-1.085 -7.959,-3.051 -8.672,-6.44 -1.311,-6.141 6.144,-7.19 11.519,-7.19 z m -45.518,301.021 43.121,-211.535 c 9.415,9.903 16.229,57.65 2.134,114.159 -8.858,35.763 -26.85,75.892 -45.255,97.376 z m 65.738,-324.54 2.472,-11.869 c 5.189,1.124 12.019,3.463 11.458,7.825 -1.01,7.548 -10.764,5.057 -13.93,4.044 z m -33.893,89.99 c -4.414,-2.564 -11.174,-7.433 -10.37,-12.676 0.823,-5.261 8.672,-7.024 14.531,-7.564 z m 25.601,-51.154 c 5.653,2.922 11.797,7.378 9.734,12.245 -1.796,4.363 -8.778,5.58 -13.571,5.919 z" /><path
             id="path64"
             style="fill:#0066ad;fill-opacity:1;fill-rule:nonzero;stroke:none;stroke-width:0.1"
             d="m 282.89147,472.32 c 0,0 13.632,21.131 -2.937,73.101 -0.096,0.29 23.648,-2.088 23.648,-2.088 0,0 -2.209,-17.555 -0.131,-28.63 0.056,-0.114 19.396,0.563 19.396,0.589 3.712,7.042 -4.641,28.499 -4.641,28.499 l 25.297,-0.458 c 0,0 -7.433,-35.997 9.961,-69.169 0.111,-0.216 -26.794,0.965 -26.794,0.965 0,0 1.649,16.513 -1.047,26.194 -0.06,0.264 -21.459,0.114 -21.459,0 -0.241,-10.989 3.67,-27.965 3.67,-27.965 l -24.963,-1.038 v 0" /><path
             id="path66"
             style="fill:#0066ad;fill-opacity:1;fill-rule:evenodd;stroke:none;stroke-width:0.1"
             d="m 539.21047,365.891 c 3.203,-4.64 4.775,-11.066 4.661,-19.209 -0.073,-8.182 -1.739,-14.38 -5.11,-18.595 -3.277,-4.212 -9.026,-6.085 -17.109,-5.541 -8.169,0.504 -13.841,3.09 -17.118,7.658 -3.22,4.661 -4.773,11.082 -4.684,19.249 0.078,8.163 1.762,14.378 5.093,18.611 3.336,4.252 9.011,6.086 17.173,5.577 8.164,-0.523 13.855,-3.105 17.094,-7.75 z m -24.848,-30.444 c 1.103,-3.091 3.616,-4.758 7.322,-5 3.747,-0.243 6.201,1.105 7.414,4.065 1.182,2.958 1.821,7.28 1.835,12.99 0.042,5.958 -0.429,10.393 -1.608,13.335 -1.123,2.921 -3.558,4.533 -7.288,4.755 -3.724,0.243 -6.156,-1.032 -7.43,-3.837 -1.219,-2.774 -1.911,-7.172 -1.911,-13.127 -0.073,-5.693 0.491,-10.076 1.666,-13.181 v 0" /><path
             id="path68"
             style="fill:#0066ad;fill-opacity:1;fill-rule:nonzero;stroke:none;stroke-width:0.1"
             d="m 561.82747,336.436 c 0,-1.984 0.416,-3.666 1.184,-4.998 1.517,-2.47 4.288,-3.855 8.312,-4.117 2.452,-0.17 4.606,0.374 6.478,1.534 1.836,1.199 2.791,3.035 2.791,5.504 0.076,3.259 -1.63,5.506 -5.001,6.856 -1.981,0.731 -5.017,1.236 -9.174,1.495 l 0.094,6.945 c 4.024,-0.202 6.909,-0.052 8.539,0.374 2.751,0.811 4.193,2.647 4.213,5.564 0.055,1.873 -0.659,3.465 -2.079,4.738 -1.426,1.294 -3.409,2.004 -6.011,2.152 -2.925,0.208 -5.127,-0.374 -6.572,-1.737 -1.368,-1.389 -2.039,-3.28 -2.039,-5.751 l -11.707,0.746 c 0.153,2.455 0.694,4.758 1.725,6.895 1.031,1.907 2.605,3.555 4.869,5.088 1.648,1.051 3.596,1.798 5.897,2.288 2.284,0.428 5.055,0.581 8.311,0.376 6.144,-0.376 10.994,-1.914 14.741,-4.609 3.761,-2.698 5.579,-6.105 5.54,-10.207 -0.035,-2.918 -1.144,-5.296 -3.442,-7.168 -1.427,-1.161 -2.868,-1.913 -4.421,-2.265 1.145,-0.076 2.807,-0.957 4.886,-2.622 3.221,-2.491 4.759,-5.711 4.759,-9.736 -0.078,-4.179 -1.987,-7.756 -5.791,-10.674 -3.741,-2.94 -9.325,-4.174 -16.647,-3.725 -9.039,0.597 -15.294,3.257 -18.799,8.088 -1.816,2.564 -2.862,5.785 -2.992,9.736 l 12.336,-0.77 v 0" /><path
             id="path86"
             style="fill:#0066ad;fill-opacity:1;fill-rule:nonzero;stroke:none;stroke-width:0.1"
             d="m 267.61647,202.841 c -8.934,-0.957 -28.968,-0.993 -27.056,18.2 1.234,12.467 12.807,16.269 19.695,17.433 l -4.683,22.822 c -7.655,1.275 -28.215,5.882 -30.479,17.491 -2.267,11.663 15.072,23.704 21.23,27.541 l -51.417,249.981 c -6.18,0.607 -13.178,3.801 -13.779,12.535 -0.375,6.339 5.785,11.573 14.643,13.265 8.854,1.715 15.558,-1.75 17.187,-6.69 1.724,-5.172 2.659,-9.647 -5.633,-15.579 l 0.859,-4.786 0.091,-0.327 c 17.79,4.389 63.816,14.931 96.189,15.109 44.151,0.263 67.953,-11.888 111.613,-18.415 52.319,-7.836 82.806,-4.577 134.517,-17.6 38.368,-9.674 79.715,-39.182 79.715,-39.182 0,0 -13.558,-48.974 0.99,-102.478 20.184,-74.112 17.712,-124.629 17.712,-124.629 0,0 -43.106,28.221 -131.724,30.524 -49.922,1.307 -128.003,3.162 -128.003,3.162 0,0 -83.06,13.761 -126.502,-3.37 l 5.224,-24.492 c 5.713,-0.3 23.483,-2.061 28.109,-11.271 8.05,-15.992 -9.192,-26.475 -19.174,-30.972 l 3.166,-14.791 c 9.511,1.31 23.891,1.389 27.334,-9.023 5.653,-17.115 -10.805,-23.877 -19.866,-26.236 l 2.811,-13.238 -16.367,3.744 z m -47.448,345.313 c 11.589,-24.2 32.991,-54.18 47.634,-90.513 60.461,16.271 122.514,-0.554 122.514,-0.554 l -12.415,90.647 c -18.931,2.805 -38.126,6.318 -57.126,10.83 -47.077,2.013 -100.794,-10.047 -100.607,-10.41 z m 50.104,-97.124 c 1.217,-3.069 2.229,-6.157 3.275,-9.278 54.994,15.046 117.46,-0.364 138.49,-6.533 l -17.995,110.24 c -2.55,0.326 -5.092,0.673 -7.66,1.018 l 15.147,-98.45 c 0,0 -82.029,19.108 -131.257,3.003 z m 9.834,-34.941 c 0.466,-2.359 0.915,-4.697 1.269,-6.915 55.913,20.23 126.541,-6.134 126.541,-6.134 l 15.185,-92.33 c 3.22,-0.13 6.289,-0.205 9.308,-0.317 l -16.333,100.184 c -20.704,6.161 -94.76,25.869 -135.97,5.512 z m 2.541,-15.931 c 4.143,-36.626 -5.879,-51.997 -10.05,-84.599 -0.622,-5.314 25.686,6.405 74.743,2.006 19.103,-3.466 44.249,-5.394 67.227,-6.461 -2.57,15.673 -14.444,86.846 -14.61,86.899 -61.228,20.269 -103.544,7.604 -117.31,2.155 z m 178.11,-90.307 c 2.977,-0.039 5.599,-0.059 7.826,-0.059 -2.68,15.953 -14.664,87.575 -14.268,87.658 33.145,6.451 125.003,-16.431 167.487,-20.286 -0.484,2.639 -0.956,5.278 -1.422,7.937 -35.86,10.243 -133.862,31.73 -175.874,23.632 z m 155.69,99.202 c -0.652,4.07 -1.213,8.114 -1.702,12.112 -69.169,16.384 -168.141,20.156 -168.141,20.156 l -15.49,99.784 c -2.791,0.288 -5.671,0.607 -8.52,0.897 l 18.108,-109.91 c 53.366,5.591 154.791,-17.987 175.745,-23.039 z m -139.066,-99.13 c 90.867,8.034 159.833,-25.183 159.755,-24.265 -0.766,19.099 -7.337,49.673 -13.498,82.066 -48.926,11.201 -143.37,23.614 -159.135,23.183 -0.375,0 9.975,-63.287 12.878,-80.984 z m 136.35,120.145 c -2.561,24.53 -2.375,46.203 3.651,60.013 0.061,0.253 -42.386,33.132 -104.686,42.316 -18.913,2.789 -43.552,4.878 -71.114,7.621 l 13.613,-91.973 c 0,0 113.823,-2.595 158.536,-17.977 z m -339.243,-187.42 c 5.653,2.922 11.797,7.378 9.734,12.245 -1.796,4.363 -8.778,5.58 -13.571,5.919 z m -25.601,51.154 c -4.414,-2.564 -11.174,-7.433 -10.37,-12.676 0.823,-5.261 8.672,-7.024 14.531,-7.564 z m 33.893,-89.99 2.472,-11.869 c 5.189,1.124 12.019,3.463 11.458,7.825 -1.01,7.548 -10.764,5.057 -13.93,4.044 z m -65.738,324.54 43.121,-211.535 c 9.415,9.903 16.229,57.65 2.134,114.159 -8.858,35.763 -26.85,75.892 -45.255,97.376 z m 45.518,-301.021 c -3.878,-1.085 -7.959,-3.051 -8.672,-6.44 -1.311,-6.141 6.144,-7.19 11.519,-7.19 l -2.847,13.63 v 0" /></g></g></g></g><g
     id="layer1"
     transform="translate(-1.8272123,-1.6943403)" />
</svg>
